<?xml version="1.0" encoding="utf-8"?>
<!DOCTYPE svg PUBLIC "-//W3C//DTD SVG 20010904//EN" "http://www.w3.org/TR/2001/REC-SVG-20010904/DTD/svg10.dtd">
<svg version="1.0" xmlns="http://www.w3.org/2000/svg" width="800px" height="800px" viewBox="0 0 800 800" preserveAspectRatio="xMidYMid meet">
 <g fill="#000000">
  <path d="M341 616.8 c-4.1 -0.5 -8.9 -1 -10.6 -1.2 -1.7 -0.2 -4.1 -0.9 -5.3 -1.5 -1.2 -0.7 -2.6 -0.9 -3.1 -0.6 -0.5 0.3 -1.1 0.1 -1.5 -0.5 -0.3 -0.5 -1.9 -1 -3.5 -1 -1.6 0 -3.1 -0.4 -3.4 -0.9 -0.7 -1 -10.9 -6.1 -12.3 -6.1 -0.6 0 -1.4 -0.7 -1.7 -1.6 -0.3 -0.9 -1.3 -1.4 -2 -1.1 -0.8 0.3 -1.6 0 -1.9 -0.6 -0.2 -0.7 -2.6 -2.3 -5.3 -3.7 -8.7 -4.3 -35.1 -30.6 -42.9 -42.5 -2.1 -3.3 -5.6 -8.3 -7.7 -11.1 -2.1 -2.8 -3.8 -5.4 -3.8 -5.9 0 -0.4 -2.6 -5.4 -5.9 -10.9 -3.2 -5.6 -7.5 -13.9 -9.6 -18.6 -2.1 -4.7 -4.1 -8.9 -4.5 -9.5 -0.4 -0.5 -1.7 -3.7 -2.8 -7 -1.1 -3.3 -3.7 -10.5 -5.6 -16 -2 -5.5 -3.6 -10.9 -3.6 -12 0 -1.1 -0.7 -3.3 -1.5 -4.9 -0.9 -1.6 -2 -5.9 -2.5 -9.6 -0.5 -3.6 -1.6 -8.3 -2.5 -10.3 -3.9 -9.4 -6.4 -68.2 -3.6 -84.7 1.4 -8.4 4.8 -23.2 6.1 -27 0.5 -1.4 1.8 -5.8 3 -9.7 1.2 -4 2.6 -7.5 3.1 -7.8 0.5 -0.4 0.9 -1.5 0.9 -2.5 0 -1.8 3.2 -7.3 10.2 -17.3 3.1 -4.6 15.4 -18.5 18.8 -21.3 4.4 -3.7 11.3 -8.5 15.1 -10.5 2.4 -1.3 4.6 -2.6 4.9 -2.9 1.6 -1.7 11.4 -5.9 15.1 -6.5 2.4 -0.4 5.2 -1.1 6.1 -1.6 1.8 -1 9.1 -2.7 14.3 -3.3 1.7 -0.2 10.7 -0.5 20 -0.6 22.6 -0.2 39.1 2.7 57 10 2.9 1.2 5.9 2.3 6.5 2.4 0.3 0.1 1 0.4 1.6 0.8 2.1 1.4 10 3.8 12.5 3.8 1.4 0 4 0.5 5.7 1.1 4.1 1.4 21.5 -1.4 28.7 -4.6 4.5 -2 15.1 -5.6 29.2 -9.9 2.8 -0.9 6.3 -1.6 7.7 -1.6 1.4 0 2.7 -0.4 3.1 -0.9 0.4 -0.7 27.5 -1.6 39 -1.3 3.9 0.1 15.1 2.3 22 4.4 7.9 2.3 26.6 11.1 30.8 14.5 1.6 1.3 3.3 2.3 3.9 2.3 1.5 0 20.4 19.5 24.2 24.9 1.8 2.5 4.7 7.5 6.4 11.1 1.8 3.6 4.3 8.5 5.7 11 1.4 2.5 2.5 5.3 2.5 6.2 0 1 0.4 2.6 0.9 3.6 6 12 9.1 34.4 9 64.7 -0.1 20.8 -0.4 24.4 -3.2 40 -0.8 4.4 -1.4 9.1 -1.4 10.5 0 1.4 -1.2 7.1 -2.7 12.8 -1.4 5.7 -2.3 10.8 -2 11.4 0.4 0.7 0.2 0.8 -0.4 0.4 -0.8 -0.5 -1.2 0.1 -1.2 1.7 0 1.4 -0.7 4.1 -1.5 6.1 -0.8 2 -2.2 6 -2.9 8.8 -0.8 2.9 -3.3 10 -5.6 15.8 -2.3 5.8 -5 12.8 -6 15.5 -1 2.8 -4.3 9.1 -7.4 14 -3 5 -6.5 10.8 -7.6 13 -1.2 2.2 -5.2 8.2 -9.1 13.4 -3.8 5.2 -6.9 9.9 -6.9 10.4 0 1.1 -2.6 4 -15.1 16.8 -9.7 9.9 -17.2 16.4 -23.7 20.5 -2.9 1.9 -5.4 3.4 -5.7 3.4 -0.2 0 -3.2 1.6 -6.6 3.6 -3.3 2 -7.6 4 -9.5 4.6 -1.9 0.5 -3.4 1.3 -3.4 1.8 0 0.6 -0.9 1 -1.9 1 -1 0 -5 1 -8.7 2.1 -14 4.3 -35.4 4.1 -50.9 -0.5 -2.7 -0.8 -6.8 -2 -9 -2.6 -2.2 -0.6 -5.4 -1.6 -7.1 -2.1 -5.7 -1.7 -18 -0.6 -23.5 2.1 -3.6 1.8 -22.9 5.9 -29.4 6.2 -3.8 0.2 -10.4 0 -14.5 -0.4z m19.6 -19.9 c4.2 -0.6 11.4 -2.3 15.8 -3.9 10.6 -3.8 21.7 -5.3 31.4 -4.5 4.2 0.4 8.2 1.1 8.7 1.5 0.6 0.3 3.9 1.7 7.3 2.9 15.4 5.5 34.5 5.9 49 1.2 9.4 -3.1 16.5 -6.2 17 -7.3 0.2 -0.4 2.3 -1.7 4.8 -2.7 2.4 -1.1 4.4 -2.5 4.4 -3 0 -0.6 0.7 -1.1 1.5 -1.1 0.8 0 1.5 -0.5 1.5 -1 0 -0.6 0.8 -1.4 1.8 -1.7 3.4 -1.4 13.2 -9.5 17.9 -15 2.6 -3 5.7 -6.4 6.7 -7.4 1.1 -1.1 1.7 -1.9 1.4 -1.9 -0.2 0 1.6 -2.3 4.3 -5.2 2.6 -2.8 4.5 -5.7 4.2 -6.4 -0.4 -1.1 1.2 -3.2 7 -9.5 0.9 -1 1.7 -2.3 1.7 -2.8 0 -0.5 0.7 -1.4 1.5 -2.1 0.9 -0.8 1.3 -2.1 1 -3.4 -0.5 -1.5 -0.4 -1.7 0.3 -0.7 0.7 0.9 2.5 -1.7 6.6 -9.7 3.1 -6.1 5.6 -12 5.6 -13.1 0 -1.1 0.8 -2.8 1.8 -3.8 2.2 -2.1 9.2 -19.3 9.2 -22.6 0 -1.3 0.4 -2.7 0.9 -3.2 1.1 -1.2 8.1 -24.5 8.1 -26.9 0 -1 0.6 -3.2 1.4 -4.9 0.8 -1.8 1.7 -6.3 1.9 -10.2 0.3 -3.8 1.1 -9.9 1.8 -13.5 2.5 -13.6 1.2 -60.1 -2 -70.3 -0.6 -1.7 -1.3 -4.9 -1.6 -7 -0.3 -2 -1 -3.7 -1.6 -3.7 -0.6 0 -0.8 -0.4 -0.5 -0.8 1 -1.7 -6.2 -19.4 -7.5 -18.6 -0.5 0.3 -0.9 -0.3 -0.9 -1.4 0 -1 -0.9 -2.9 -2 -4.2 -1.1 -1.3 -2 -2.9 -2 -3.6 0 -0.8 -1.7 -3.2 -3.7 -5.4 -10.5 -11.2 -16.3 -17.2 -16.3 -16.8 0 0.3 -1.7 -1.1 -3.8 -3.1 -2.1 -2 -5.6 -4.2 -7.7 -5 -2.2 -0.8 -4.5 -1.9 -5.1 -2.6 -1.8 -1.8 -18 -7.1 -25.5 -8.4 -13.8 -2.3 -48.7 -0.3 -49.7 2.9 -0.2 0.5 -1.4 1 -2.6 1 -3 0 -8.6 2 -8.6 3 0 0.5 -0.8 0.8 -1.7 0.8 -1 -0.1 -5.6 1.2 -10.3 3 -16.6 6 -19.5 6.6 -34 6.5 -11.7 -0.1 -14.6 -0.5 -22 -2.8 -4.7 -1.5 -10.2 -2.9 -12.4 -3.2 -2.3 -0.3 -3.4 -0.8 -2.6 -1.3 0.8 -0.5 -0.1 -1.2 -2.6 -2 -2.2 -0.7 -5.2 -1.8 -6.9 -2.5 -4 -1.7 -14.5 -4.2 -22.5 -5.5 -8.4 -1.3 -29.2 -1.3 -36.1 0 -10 1.8 -17.9 4.3 -17.2 5.3 0.4 0.6 0 0.8 -1.1 0.4 -1.9 -0.7 -13.5 4.8 -14.9 7 -0.4 0.7 -1.5 1.3 -2.4 1.3 -1.5 0 -4 1.9 -9 7 -1.4 1.4 -2.9 2.4 -3.4 2.3 -0.4 -0.2 -1.1 0.6 -1.4 1.7 -0.4 1.1 -0.9 2 -1.3 2 -1.3 0 -6.2 4.7 -5.5 5.4 0.3 0.3 -0.1 0.6 -1 0.6 -1 0 -1.7 0.7 -1.7 1.6 0 0.9 -1.1 2.9 -2.4 4.5 -3.7 4.3 -10.1 16.6 -12.6 23.9 -1.2 3.6 -2.5 7.4 -3.1 8.5 -0.5 1.1 -1 3.6 -1.1 5.5 -0.1 1.9 -0.6 3.8 -1 4.1 -1.4 0.9 -3.2 18.5 -3.1 29.9 0.1 18.1 1.3 36.2 3 43.8 0.8 4 1.3 9 1 11.1 -0.2 2.1 0.1 5.2 0.9 7 0.8 1.9 1.4 4.5 1.4 5.9 0 1.3 0.9 5.7 2 9.6 1.1 3.9 2.7 9.6 3.6 12.6 0.8 3 1.9 6.4 2.4 7.5 1.8 4 6 15.2 6 15.9 0 1.6 8.3 18.6 9.1 18.6 0.5 0 0.9 0.6 0.9 1.4 0 2 7 15.6 8.1 15.6 0.5 0 0.9 0.7 0.9 1.5 0 0.8 0.9 2.4 2 3.5 1.1 1.1 2 2.3 2 2.6 0 1.3 7.1 12 10.5 15.9 1.9 2.2 4.7 5.5 6.2 7.4 9.8 11.9 31.9 30.6 34.9 29.4 0.8 -0.3 1.4 0 1.4 0.6 0 0.6 1.2 1.7 2.8 2.4 1.5 0.6 3 1.5 3.3 1.9 1.4 2 17.1 6.7 25.4 7.8 9.2 1.1 11.7 1.1 20.1 -0.1z"/>
  <path d="M384.5 521.4 c-17.2 -2.3 -31.9 -8.7 -39.9 -17.3 -1.7 -1.7 -3.6 -3.1 -4.3 -3.1 -0.7 0 -1.3 -0.4 -1.3 -0.9 0 -0.5 -1.7 -3.5 -3.8 -6.7 -6.1 -9.2 -7.4 -13.7 -7 -22.8 l0.3 -8 -5 -1.3 c-2.7 -0.7 -6.1 -1.5 -7.5 -1.7 -6.5 -1.1 -28.5 -11.1 -31 -14.2 -0.7 -0.8 -1.8 -1.4 -2.4 -1.4 -0.6 0 -2.7 -2.3 -4.6 -5 -1.9 -2.7 -3.8 -5 -4.1 -5 -0.4 0 -1.7 -2.4 -2.9 -5.4 -1.8 -4.6 -2.1 -6.8 -1.7 -14.7 0.6 -12.1 1.8 -17.4 4.9 -20.2 2.3 -2.1 2.6 -3.3 3 -11.3 0.3 -6.1 0.9 -9.7 2.1 -11.5 0.9 -1.4 1.4 -2.9 1 -3.2 -0.3 -0.4 -0.1 -0.7 0.6 -0.7 0.7 0 1.9 -1.6 2.7 -3.5 0.8 -1.9 1.8 -3.4 2.2 -3.3 0.4 0.1 2.7 -1.8 5.2 -4.2 8.6 -8.5 8.6 -8.5 18.5 -8.5 8.3 0 9 -0.2 10.1 -2.3 0.6 -1.3 1.3 -2.2 1.5 -2.1 0.2 0.1 2.3 -1 4.7 -2.5 12.5 -7.9 33.1 -10 48 -5 l7.4 2.5 5.9 -2.1 c10.5 -3.6 27.5 -2.2 45.3 3.6 4.3 1.5 9.6 3.7 11.9 5 2.2 1.2 4.4 2.1 4.9 1.8 0.4 -0.3 0.8 0 0.8 0.6 0 0.6 0.5 0.8 1 0.5 0.6 -0.3 1 0.1 1 0.9 0 0.8 0.6 1.9 1.3 2.3 0.6 0.4 1.7 1.7 2.3 2.8 0.6 1.1 3.2 2.5 6 3.3 2.7 0.8 8.3 2.6 12.4 4 4.1 1.5 8.1 2.5 8.8 2.4 0.6 -0.2 1.2 0.2 1.2 0.8 0 0.5 0.6 1 1.3 1 0.7 0 3.9 2.5 7.1 5.5 3.2 3 6.1 5.5 6.4 5.5 1.2 0 5.2 6.9 5.2 9 0 1.1 0.4 2 0.8 2 0.5 0 1.9 2.4 3.1 5.3 1.2 2.8 2.7 6 3.2 6.9 0.5 1 0.9 3.6 0.9 5.8 0 3.2 0.5 4.3 2.8 5.7 1.5 1 3.8 3 5 4.6 1.3 1.5 3 2.7 3.8 2.7 0.9 0 1.3 0.4 0.9 1 -0.3 0.5 0.3 1.8 1.5 3 1.1 1.1 2 2.5 2 3.1 0 0.6 0.7 1.7 1.5 2.5 0.8 0.9 1.5 3.3 1.5 5.4 0 2.1 0.3 4.1 0.8 4.3 2.2 1.5 -2.1 38.1 -4.9 41.1 -0.5 0.6 -0.9 1.8 -0.9 2.7 0 2.1 -8.6 11.1 -12.2 12.6 -7 3.1 -23.9 2.3 -27.9 -1.3 -1.6 -1.4 -2.1 -1.3 -6.1 0.8 -3.8 2 -5.6 2.3 -15 2.2 l-10.7 0 -0.6 2.8 c-0.5 1.9 -1.8 3.5 -4 4.6 -1.8 0.9 -5.8 3.4 -8.9 5.4 -3.1 2.1 -8.1 4.8 -11.1 6.1 -3.1 1.3 -5.2 2.7 -4.8 3.2 0.5 0.4 0.3 0.5 -0.4 0.1 -0.6 -0.3 -4.5 0.2 -8.5 1.3 -7 1.9 -25.1 3.3 -31.3 2.5z"/>
  <path d="M393.7 253 c-2.1 -3 -1.3 -17.4 1.4 -26.5 2.1 -7 8.6 -20.2 11.8 -24 2.5 -3 6.1 -8.3 6.1 -9 0 -1 8 -8.5 9.1 -8.5 0.5 0 1.8 -0.9 3 -2.1 3 -3 11.2 -6.9 14.7 -6.9 3.9 0 8.2 2.3 9.9 5.2 3.7 6.8 -1.1 16.8 -8.2 16.8 -0.8 0 -1.5 0.4 -1.5 1 0 0.5 -0.6 0.7 -1.3 0.4 -0.7 -0.2 -3.4 1 -6.1 2.8 -2.6 1.8 -5.5 3.8 -6.4 4.3 -3.3 1.9 -10.3 9.8 -12.4 13.8 -4.3 8.5 -6.9 17.1 -7.4 24.6 -0.6 8.9 -1.7 10.7 -5.8 9.1 -2 -0.7 -3.2 -0.7 -4.1 0 -1 0.8 -1.7 0.6 -2.8 -1z"/>
  <path d="M383.5 227.1 c-0.4 -0.8 -11.9 -1.1 -35 -1.1 -18.9 0 -34.6 -0.4 -34.9 -0.9 -0.3 -0.4 -2.5 -1.1 -4.8 -1.5 -12.7 -1.8 -25 -4.6 -26.8 -6.1 -0.8 -0.6 -4.2 -2.2 -7.5 -3.5 -3.3 -1.3 -7.5 -3.8 -9.4 -5.7 -1.9 -1.8 -3.9 -3.3 -4.4 -3.3 -1.5 0 -13.5 -12.8 -16.5 -17.5 -3.8 -5.9 -9.2 -16.8 -9.2 -18.5 0 -0.9 -0.7 -2.5 -1.5 -3.7 -1.2 -1.7 -1.7 -7.6 -2.4 -28.5 -0.5 -14.5 -0.8 -26.4 -0.7 -26.5 0.1 -0.1 13 0.2 28.7 0.7 26.3 0.9 48.2 2.9 55.4 5 1.7 0.5 4.8 1.2 7 1.6 2.2 0.3 4.5 1 5 1.4 0.6 0.5 4.2 1.8 8.1 3 3.9 1.1 8 2.8 9 3.6 3.9 2.9 9.5 6.4 10.4 6.4 0.6 0 2.2 1.4 3.7 3.1 1.6 1.7 3.8 3.5 5.1 4 1.2 0.5 2.2 1.4 2.2 2.1 0 0.7 2 3.3 4.5 5.7 2.5 2.4 4.5 5 4.5 5.7 0 0.7 0.6 1.7 1.3 2.1 1.6 1 7.8 14.1 9.6 20.3 0.7 2.5 1.6 5.2 2 6 0.9 2 1.5 13.2 1.5 31.5 0.1 14.6 0 15 -2.1 15.3 -1.1 0.2 -2.4 -0.2 -2.8 -0.7z"/>
 </g>
</svg>